<svg fill="none" height="35" viewBox="0 0 94 35" width="94" xmlns="http://www.w3.org/2000/svg" xmlns:xlink="http://www.w3.org/1999/xlink"><filter id="a" color-interpolation-filters="sRGB" filterUnits="userSpaceOnUse" height="20.456" width="10.646" x="77.9453" y="9.652"><feFlood flood-opacity="0" result="BackgroundImageFix"/><feColorMatrix in="SourceAlpha" result="hardAlpha" type="matrix" values="0 0 0 0 0 0 0 0 0 0 0 0 0 0 0 0 0 0 127 0"/><feOffset dy="4"/><feGaussianBlur stdDeviation="2"/><feComposite in2="hardAlpha" operator="out"/><feColorMatrix type="matrix" values="0 0 0 0 0 0 0 0 0 0 0 0 0 0 0 0 0 0 0.25 0"/><feBlend in2="BackgroundImageFix" mode="normal" result="effect1_dropShadow_1002_638"/><feBlend in="SourceGraphic" in2="effect1_dropShadow_1002_638" mode="normal" result="shape"/></filter><filter id="b" color-interpolation-filters="sRGB" filterUnits="userSpaceOnUse" height="20.456" width="18.4038" x="66.3257" y="9.652"><feFlood flood-opacity="0" result="BackgroundImageFix"/><feColorMatrix in="SourceAlpha" result="hardAlpha" type="matrix" values="0 0 0 0 0 0 0 0 0 0 0 0 0 0 0 0 0 0 127 0"/><feOffset dy="4"/><feGaussianBlur stdDeviation="2"/><feComposite in2="hardAlpha" operator="out"/><feColorMatrix type="matrix" values="0 0 0 0 0 0 0 0 0 0 0 0 0 0 0 0 0 0 0.25 0"/><feBlend in2="BackgroundImageFix" mode="normal" result="effect1_dropShadow_1002_638"/><feBlend in="SourceGraphic" in2="effect1_dropShadow_1002_638" mode="normal" result="shape"/></filter><filter id="c" color-interpolation-filters="sRGB" filterUnits="userSpaceOnUse" height="20.636" width="17.6118" x="52.1011" y="9.562"><feFlood flood-opacity="0" result="BackgroundImageFix"/><feColorMatrix in="SourceAlpha" result="hardAlpha" type="matrix" values="0 0 0 0 0 0 0 0 0 0 0 0 0 0 0 0 0 0 127 0"/><feOffset dy="4"/><feGaussianBlur stdDeviation="2"/><feComposite in2="hardAlpha" operator="out"/><feColorMatrix type="matrix" values="0 0 0 0 0 0 0 0 0 0 0 0 0 0 0 0 0 0 0.25 0"/><feBlend in2="BackgroundImageFix" mode="normal" result="effect1_dropShadow_1002_638"/><feBlend in="SourceGraphic" in2="effect1_dropShadow_1002_638" mode="normal" result="shape"/></filter><filter id="d" color-interpolation-filters="sRGB" filterUnits="userSpaceOnUse" height="20.456" width="17.4502" x="41.1699" y="9.652"><feFlood flood-opacity="0" result="BackgroundImageFix"/><feColorMatrix in="SourceAlpha" result="hardAlpha" type="matrix" values="0 0 0 0 0 0 0 0 0 0 0 0 0 0 0 0 0 0 127 0"/><feOffset dy="4"/><feGaussianBlur stdDeviation="2"/><feComposite in2="hardAlpha" operator="out"/><feColorMatrix type="matrix" values="0 0 0 0 0 0 0 0 0 0 0 0 0 0 0 0 0 0 0.25 0"/><feBlend in2="BackgroundImageFix" mode="normal" result="effect1_dropShadow_1002_638"/><feBlend in="SourceGraphic" in2="effect1_dropShadow_1002_638" mode="normal" result="shape"/></filter><path d="m23 8c0-4.41828 3.5817-8 8-8h55c4.4183 0 8 3.58172 8 8v16c0 4.4183-3.5817 8-8 8h-55c-4.4183 0-8-3.5817-8-8z" fill="#100d1e"/><g filter="url(#a)"><path d="m81.9453 20.704v-9.648c0-.846.558-1.404 1.332-1.404.756 0 1.314.558 1.314 1.404v9.648c0 .846-.558 1.404-1.314 1.404-.774 0-1.332-.558-1.332-1.404z" fill="#32d580"/></g><g filter="url(#b)"><path d="m70.3257 20.866c0-.18.036-.36.09-.504l3.312-9.162c.342-.972.882-1.548 1.818-1.548s1.494.576 1.836 1.548l3.258 9.162c.054.144.09.324.09.504 0 .756-.612 1.242-1.278 1.242-.576 0-1.044-.342-1.242-.936l-.504-1.494h-4.374l-.486 1.494c-.198.594-.666.936-1.242.936-.666 0-1.278-.486-1.278-1.242zm3.762-3.438h2.88l-1.404-4.284h-.054z" fill="#32d580"/></g><g filter="url(#c)"><path d="m60.9071 22.198c-2.142 0-3.816-.99-4.464-2.97-.27-.864-.342-1.548-.342-3.348s.072-2.484.342-3.348c.648-1.98 2.322-2.97 4.464-2.97s3.816.99 4.464 2.97c.27.864.342 1.548.342 3.348s-.072 2.484-.342 3.348c-.648 1.98-2.322 2.97-4.464 2.97zm0-2.34c1.008 0 1.656-.504 1.926-1.332.144-.45.198-1.062.198-2.646s-.054-2.196-.198-2.646c-.27-.828-.918-1.332-1.926-1.332s-1.656.504-1.926 1.332c-.144.45-.198 1.062-.198 2.646s.054 2.196.198 2.646c.27.828.918 1.332 1.926 1.332z" fill="#fff"/></g><g filter="url(#d)"><path d="m45.1699 20.83v-9.594c0-.972.576-1.584 1.476-1.584.756 0 1.26.45 1.746 1.296l3.744 6.678h.072v-6.696c0-.81.486-1.278 1.206-1.278s1.206.468 1.206 1.278v9.594c0 .972-.576 1.584-1.476 1.584-.756 0-1.26-.45-1.746-1.296l-3.744-6.66h-.072v6.678c0 .81-.486 1.278-1.206 1.278s-1.206-.468-1.206-1.278z" fill="#fff"/></g><path d="m36 0v29c0 3.3137-2.6863 6-6 6-2.7528 0-5.2727-1.4349-7.7764-2.5791-1.2778-.584-2.6986-.9091-4.1953-.9092-1.4772 0-2.8805.3171-4.1455.8867-2.5422 1.1449-5.09468 2.6016-7.8828 2.6016-3.31371 0-5.99999991-2.6863-6-6v-21c0-4.41828 3.58172-7.99999997 8-8z" fill="#32d580"/><path d="m22 8c3.1733 0 5.8514 2.1121 6.71 5.0068 1.8352.1086 3.29 1.6307 3.29 3.4932v1c0 1.8625-1.4548 3.3836-3.29 3.4922-.8583 2.8951-3.5364 5.0078-6.71 5.0078h-8c-3.1737 0-5.85276-2.1125-6.71094-5.0078-1.83474-.1091-3.28906-1.6301-3.28906-3.4922v-1c0-1.8622 1.4543-3.3841 3.28906-3.4932.85847-2.8948 3.53754-5.0068 6.71094-5.0068zm-7.5 6c-1.3807 0-2.5 1.1193-2.5 2.5s1.1193 2.5 2.5 2.5 2.5-1.1193 2.5-2.5-1.1193-2.5-2.5-2.5zm7 0c-1.3807 0-2.5 1.1193-2.5 2.5s1.1193 2.5 2.5 2.5 2.5-1.1193 2.5-2.5-1.1193-2.5-2.5-2.5zm-3.5-10c1.1046 0 2 .89543 2 2s-.8954 2-2 2-2-.89543-2-2 .8954-2 2-2z" fill="#100d1e"/></svg>